<svg width="144" height="174" viewBox="0 0 144 174" fill="none" xmlns="http://www.w3.org/2000/svg">
<path d="M0.889404 0C7.86941 21.4863 26.1087 63.8649 54.0001 92.5C75.0904 114.153 89.3802 119.2 101.228 123.384C110.446 126.639 118.186 129.373 126.5 139C134.52 148.286 140.202 161.229 144 173.319V129.851C131.359 99.6013 117.346 92.7592 102.5 90.5C79.5001 87 60.0001 82 39.5001 52C24.0511 29.3917 15.08 8.85396 12.0017 0H0.889404Z" fill="#2D2D2D"/>
<path d="M28.0473 0C43.9626 28.0929 58.2617 51.849 91.5001 49C120.226 46.5378 134.132 55.527 144 72.6505V46.819C127.829 25.5422 110.885 25.338 92.7034 25.1189C90.4876 25.0922 88.2534 25.0653 86.0001 25C62.2773 24.3124 49.1682 10.0313 43.9425 0H28.0473Z" fill="#2D2D2D"/>
</svg>
