<svg width="131" height="34" viewBox="0 0 131 34" fill="none" xmlns="http://www.w3.org/2000/svg">
<path d="M11.8533 31.8682C14.6958 34.7106 19.3042 34.7106 22.1467 31.8682L26.1496 27.8652L22.6631 24.3787C19.0161 27.1851 13.765 26.9176 10.4237 23.5763C6.79171 19.9443 6.7917 14.0557 10.4237 10.4237C14.0557 6.7917 19.9443 6.79171 23.5763 10.4237C26.9176 13.765 27.1851 19.0161 24.3787 22.6631L27.8652 26.1496L31.8682 22.1467C34.7106 19.3042 34.7106 14.6958 31.8682 11.8533L22.1467 2.13183C19.3042 -0.710613 14.6958 -0.710605 11.8533 2.13183L2.13183 11.8533C-0.710605 14.6958 -0.710613 19.3042 2.13183 22.1467L11.8533 31.8682Z" fill="#2B2B2B"/>
<path fill-rule="evenodd" clip-rule="evenodd" d="M15.5835 10.2726C14.3213 10.5371 13.1192 11.1593 12.1393 12.1393C9.58832 14.6902 9.46139 18.7472 11.7584 21.448C11.7584 21.448 11.7584 21.448 11.7584 21.448C11.8787 21.5894 12.0057 21.7271 12.1393 21.8608C14.8238 24.5453 19.1763 24.5453 21.8608 21.8608C24.5453 19.1762 24.5453 14.8238 21.8608 12.1393C20.8541 11.1326 19.6128 10.5034 18.3129 10.2517C17.4118 10.0772 16.4824 10.0842 15.5835 10.2726ZM11.8601 21.2547C12.8573 19.4417 14.7857 18.2131 17.001 18.2131C19.2157 18.2131 21.1437 19.4411 22.1411 21.2533C22.0086 21.4131 21.8675 21.5681 21.7178 21.7178C19.1123 24.3233 14.8878 24.3233 12.2823 21.7178C12.133 21.5685 11.9923 21.4139 11.8601 21.2547ZM17.001 17C18.2293 17 19.225 16.0043 19.225 14.776C19.225 13.5477 18.2293 12.552 17.001 12.552C15.7727 12.552 14.777 13.5477 14.777 14.776C14.777 16.0043 15.7727 17 17.001 17Z" fill="#2B2B2B"/>
<path d="M48.86 24.33C48.4053 24.33 47.9213 24.286 47.408 24.198C46.9093 24.11 46.528 24 46.264 23.868V20.986C46.484 21.0887 46.7627 21.1693 47.1 21.228C47.4373 21.2867 47.7747 21.316 48.112 21.316C48.772 21.316 49.2633 21.162 49.586 20.854C49.9087 20.546 50.07 20.062 50.07 19.402V8.622H53.414V19.71C53.414 21.1327 53.018 22.262 52.226 23.098C51.434 23.9193 50.312 24.33 48.86 24.33ZM61.5698 24.33C60.2938 24.33 59.1718 24.1027 58.2038 23.648C57.2505 23.1787 56.5098 22.526 55.9818 21.69C55.4685 20.8393 55.2118 19.8493 55.2118 18.72C55.2118 17.62 55.4685 16.6447 55.9818 15.794C56.5098 14.9433 57.2505 14.2833 58.2038 13.814C59.1718 13.3447 60.2938 13.11 61.5698 13.11C62.8311 13.11 63.9385 13.3447 64.8918 13.814C65.8598 14.2833 66.6005 14.9433 67.1138 15.794C67.6418 16.6447 67.9058 17.62 67.9058 18.72C67.9058 19.8493 67.6418 20.8393 67.1138 21.69C66.6005 22.526 65.8671 23.1787 64.9138 23.648C63.9605 24.1027 62.8458 24.33 61.5698 24.33ZM61.5698 21.734C62.4645 21.734 63.1758 21.4627 63.7038 20.92C64.2318 20.3627 64.4958 19.6293 64.4958 18.72C64.4958 17.7813 64.2318 17.048 63.7038 16.52C63.1905 15.9773 62.4791 15.706 61.5698 15.706C60.6605 15.706 59.9418 15.9773 59.4138 16.52C58.8858 17.048 58.6218 17.7813 58.6218 18.72C58.6218 19.6293 58.8858 20.3627 59.4138 20.92C59.9565 21.4627 60.6751 21.734 61.5698 21.734ZM76.6168 24.33C75.7954 24.33 75.0621 24.2127 74.4168 23.978C73.7861 23.7433 73.1994 23.3693 72.6568 22.856V24H69.4448V7.742H72.7668V14.386C73.2361 13.9753 73.8081 13.66 74.4828 13.44C75.1574 13.22 75.8688 13.11 76.6168 13.11C77.7168 13.11 78.6848 13.352 79.5208 13.836C80.3714 14.3053 81.0314 14.9653 81.5008 15.816C81.9701 16.6667 82.2048 17.642 82.2048 18.742C82.2048 19.8567 81.9701 20.8393 81.5008 21.69C81.0314 22.526 80.3714 23.1787 79.5208 23.648C78.6848 24.1027 77.7168 24.33 76.6168 24.33ZM75.7808 21.756C76.6754 21.756 77.4014 21.4847 77.9588 20.942C78.5308 20.3847 78.8168 19.6513 78.8168 18.742C78.8168 17.8327 78.5308 17.0993 77.9588 16.542C77.4014 15.9847 76.6754 15.706 75.7808 15.706C75.0914 15.706 74.4681 15.8967 73.9108 16.278C73.3681 16.6447 72.9868 17.1287 72.7668 17.73V19.732C73.0014 20.348 73.3901 20.8393 73.9328 21.206C74.4754 21.5727 75.0914 21.756 75.7808 21.756ZM88.0874 24.33C87.2954 24.33 86.4447 24.242 85.5354 24.066C84.6407 23.9047 83.9367 23.67 83.4234 23.362V20.766C84.01 21.118 84.714 21.404 85.5354 21.624C86.3567 21.844 87.1194 21.954 87.8234 21.954C88.4247 21.954 88.8647 21.9027 89.1434 21.8C89.422 21.6973 89.5614 21.5067 89.5614 21.228C89.5614 21.008 89.4807 20.832 89.3194 20.7C89.158 20.5533 88.9087 20.4287 88.5714 20.326C88.2487 20.2087 87.706 20.04 86.9434 19.82C86.0487 19.556 85.3447 19.292 84.8314 19.028C84.3327 18.7493 83.9514 18.4047 83.6874 17.994C83.438 17.5833 83.3134 17.0553 83.3134 16.41C83.3134 15.31 83.746 14.4887 84.6114 13.946C85.4914 13.3887 86.6794 13.11 88.1754 13.11C88.9087 13.11 89.664 13.1907 90.4414 13.352C91.2334 13.4987 91.842 13.6967 92.2674 13.946V16.476C91.842 16.1973 91.2847 15.97 90.5954 15.794C89.9207 15.618 89.2607 15.53 88.6154 15.53C88.014 15.53 87.5447 15.5887 87.2074 15.706C86.8847 15.8233 86.7234 16.0433 86.7234 16.366C86.7234 16.6447 86.8774 16.8573 87.1854 17.004C87.508 17.1507 88.102 17.334 88.9674 17.554L89.4074 17.664C90.3314 17.9133 91.05 18.192 91.5634 18.5C92.0767 18.7933 92.436 19.1527 92.6414 19.578C92.8614 19.9887 92.9714 20.5093 92.9714 21.14C92.9714 22.108 92.5534 22.8853 91.7174 23.472C90.8814 24.044 89.6714 24.33 88.0874 24.33ZM94.8393 13.44H98.0513V14.606C99.122 13.6087 100.442 13.11 102.011 13.11C103.111 13.11 104.079 13.3447 104.915 13.814C105.766 14.2687 106.426 14.9213 106.895 15.772C107.365 16.608 107.599 17.5833 107.599 18.698C107.599 19.798 107.365 20.7733 106.895 21.624C106.426 22.4747 105.766 23.142 104.915 23.626C104.079 24.0953 103.111 24.33 102.011 24.33C101.263 24.33 100.552 24.22 99.8773 24C99.2026 23.78 98.6306 23.4647 98.1613 23.054V28.818H94.8393V13.44ZM101.175 21.734C102.07 21.734 102.796 21.4553 103.353 20.898C103.925 20.3407 104.211 19.6073 104.211 18.698C104.211 17.7887 103.925 17.0627 103.353 16.52C102.796 15.9773 102.07 15.706 101.175 15.706C100.486 15.706 99.87 15.8893 99.3273 16.256C98.7846 16.6227 98.396 17.1067 98.1613 17.708V19.71C98.3813 20.326 98.7626 20.8173 99.3053 21.184C99.8626 21.5507 100.486 21.734 101.175 21.734ZM115.388 24.33C114.112 24.33 112.99 24.1027 112.022 23.648C111.069 23.1787 110.328 22.526 109.8 21.69C109.287 20.8393 109.03 19.8493 109.03 18.72C109.03 17.62 109.287 16.6447 109.8 15.794C110.328 14.9433 111.069 14.2833 112.022 13.814C112.99 13.3447 114.112 13.11 115.388 13.11C116.65 13.11 117.757 13.3447 118.71 13.814C119.678 14.2833 120.419 14.9433 120.932 15.794C121.46 16.6447 121.724 17.62 121.724 18.72C121.724 19.8493 121.46 20.8393 120.932 21.69C120.419 22.526 119.686 23.1787 118.732 23.648C117.779 24.1027 116.664 24.33 115.388 24.33ZM115.388 21.734C116.283 21.734 116.994 21.4627 117.522 20.92C118.05 20.3627 118.314 19.6293 118.314 18.72C118.314 17.7813 118.05 17.048 117.522 16.52C117.009 15.9773 116.298 15.706 115.388 15.706C114.479 15.706 113.76 15.9773 113.232 16.52C112.704 17.048 112.44 17.7813 112.44 18.72C112.44 19.6293 112.704 20.3627 113.232 20.92C113.775 21.4627 114.494 21.734 115.388 21.734ZM127.685 24.33C126.453 24.33 125.514 23.9927 124.869 23.318C124.238 22.6287 123.923 21.6753 123.923 20.458V15.838H122.383V13.44H123.923V10.272H127.245V13.44H129.731V15.838H127.245V20.018C127.245 20.634 127.362 21.0813 127.597 21.36C127.832 21.624 128.25 21.756 128.851 21.756C129.335 21.756 129.797 21.6387 130.237 21.404V23.89C129.562 24.1833 128.712 24.33 127.685 24.33Z" fill="#2B2B2B"/>
</svg>
